<?xml version="1.0" encoding="utf-8"?>
<!-- Generator: Adobe Illustrator 25.0.0, SVG Export Plug-In . SVG Version: 6.00 Build 0)  -->
<svg version="1.1" id="Layer_1" xmlns="http://www.w3.org/2000/svg" xmlns:xlink="http://www.w3.org/1999/xlink" x="0px" y="0px"
	 viewBox="0 0 900 700" style="enable-background:new 0 0 900 700;" xml:space="preserve">
<style type="text/css">
	.st0{fill:#000104;}
	.st1{fill:#FFFFFF;}
</style>
<g>
	<g>
		<path class="st0" d="M541.49,167.03c0,16.59-6.86,20.8-15.71,20.8h-5.53v-41.59h5.53C534.63,146.24,541.49,150.44,541.49,167.03
			L541.49,167.03z M520.25,223.23h9.07c26.55,0,50.22-9.07,50.22-56.2c0-47.12-23.67-56.19-50.22-56.19h-48.45v172.57h39.38V223.23z
			"/>
		<polygon class="st0" points="175.57,297.57 175.57,364.38 143.71,364.38 143.71,297.57 104.33,297.57 104.33,470.13 
			143.71,470.13 143.71,399.78 175.57,399.78 175.57,470.13 214.95,470.13 214.95,297.57 		"/>
		<polygon class="st0" points="229.1,297.57 229.1,470.13 327.78,470.13 327.78,434.73 268.48,434.73 268.48,399.78 316.05,399.78 
			316.05,364.38 268.48,364.38 268.48,332.96 327.78,332.96 327.78,297.57 		"/>
		<rect x="534.86" y="297.57" class="st0" width="39.38" height="172.56"/>
		<polygon class="st0" points="657.42,332.96 687.07,332.96 687.07,297.57 588.4,297.57 588.4,332.96 618.04,332.96 618.04,470.13 
			657.42,470.13 		"/>
		<polygon class="st0" points="770.25,332.96 799.9,332.96 799.9,297.57 701.23,297.57 701.23,332.96 730.87,332.96 730.87,470.13 
			770.25,470.13 		"/>
		<polygon class="st0" points="588.4,110.84 588.4,283.41 687.07,283.41 687.07,248.01 627.78,248.01 627.78,213.05 675.34,213.05 
			675.34,177.65 627.78,177.65 627.78,146.24 687.07,146.24 687.07,110.84 		"/>
		<path class="st0" d="M300.79,202.88c0,39.82-3.76,48.45-17.26,48.45h-1.77c-13.49,0-17.26-8.63-17.26-48.45v-11.5
			c0-39.82,3.76-48.45,17.26-48.45h1.77c13.5,0,17.26,8.63,17.26,48.45V202.88z M225.12,200.22c0,63.72,13.94,85.4,57.52,85.4
			c43.58,0,57.52-21.68,57.52-85.4v-6.2c0-63.72-13.94-85.4-57.52-85.4c-43.58,0-57.52,21.68-57.52,85.4V200.22z"/>
		<path class="st0" d="M99.9,200.22c0,63.72,18.58,85.4,59.96,85.4c37.83,0,55.09-13.94,55.09-57.96v-4.42h-38.94
			c-0.66,21.24-6.19,28.1-16.15,28.1h-1.77c-10.4,0-18.8-8.63-18.8-48.45v-11.5c0-39.82,8.41-48.45,18.8-48.45h1.77
			c9.96,0,16.15,6.64,16.15,34.74h38.94v-11.06c0-44.03-17.26-57.96-55.09-57.96c-41.37,0-59.96,21.68-59.96,85.4V200.22z"/>
		<path class="st0" d="M427.78,202.88c0,39.82-3.76,48.45-17.26,48.45h-1.77c-13.5,0-17.26-8.63-17.26-48.45v-11.5
			c0-39.82,3.76-48.45,17.26-48.45h1.77c13.49,0,17.26,8.63,17.26,48.45V202.88z M352.11,200.22c0,63.72,13.94,85.4,57.52,85.4
			c43.58,0,57.52-21.68,57.52-85.4v-6.2c0-63.72-13.94-85.4-57.52-85.4c-43.58,0-57.52,21.68-57.52,85.4V200.22z"/>
		<path class="st0" d="M740.61,223.23h6.86l10.18,60.18l42.26,0.22l-17.92-69.47c8.85-6.19,17.92-18.81,17.92-47.35
			c0-46.9-23.67-55.97-50.22-55.97h-48.45v172.57h39.38V223.23z M761.84,167.03c0,16.59-6.86,20.8-15.71,20.8h-5.53v-41.59h5.53
			C754.99,146.24,761.84,150.44,761.84,167.03L761.84,167.03z"/>
		<polygon class="st0" points="429.77,297.57 406.98,297.57 389.28,421.9 388.4,421.9 378.66,297.57 337.51,297.57 360.52,470.13 
			412.51,470.13 429.33,352.21 430.21,352.21 447.02,470.13 499.02,470.13 522.02,297.57 480.87,297.57 471.14,421.68 
			470.26,421.68 452.56,297.57 		"/>
	</g>
	<g>
		<g>
			<circle cx="140.45" cy="553.02" r="40.35"/>
			<path class="st1" d="M164.79,561.19c-2.61-4.49-6.74-4.54-7.25-4.53c0,0,0-0.01,0-0.01l17.41-3.63l-17.41-3.63l0-0.01
				c0.18-0.16,3.57-3.15,8.64-3.23c3.83-0.06,7.15-4.75,5.03-8.35c0,0-0.63,5.66-7.78,3.77c-5.03-1.33-7.98,1.56-8.33,1.93l0,0
				l9.75-14.88l-14.88,9.75c0,0,0,0,0,0c0.01-0.22,0.28-4.74,3.83-8.4c2.67-2.75,1.7-8.41-2.35-9.46c0,0,3.56,4.45-2.83,8.17
				c-4.49,2.62-4.54,6.74-4.53,7.25l-0.01,0l-3.63-17.41l-3.63,17.41c0,0,0,0,0,0c-0.15-0.16-3.15-3.55-3.23-8.64
				c-0.06-3.83-4.75-7.15-8.35-5.03c0,0,5.66,0.63,3.77,7.78c-1.33,5.04,1.57,8,1.93,8.34l0,0l-14.88-9.75l0,0l0,0l7.94,12.13
				l1.8,2.75c0,0,0,0,0,0c-0.15-0.01-4.72-0.25-8.4-3.83c-2.75-2.67-8.41-1.7-9.46,2.35c0,0,4.45-3.56,8.17,2.83
				c2.62,4.51,6.77,4.54,7.26,4.53c0,0,0,0.01,0,0.01l-17.41,3.63l17.41,3.63v0c-0.11,0.1-3.52,3.15-8.65,3.23
				c-3.83,0.06-7.15,4.75-5.03,8.35c0,0,0.63-5.66,7.78-3.77c5.05,1.33,8.01-1.58,8.34-1.93c0,0,0.01,0.01,0.01,0.01l-9.75,14.88
				l14.88-9.75c-0.01,0.15-0.26,4.72-3.83,8.4c-2.67,2.75-1.7,8.41,2.35,9.46c0,0-3.56-4.45,2.83-8.17c4.5-2.62,4.54-6.76,4.53-7.26
				c0,0,0.01,0,0.01,0l3.63,17.41l3.63-17.41l0,0c0.13,0.14,3.15,3.54,3.23,8.65c0.06,3.83,4.75,7.15,8.35,5.03
				c0,0-5.66-0.63-3.77-7.77c1.33-5.04-1.57-7.99-1.93-8.34c0,0,0.01-0.01,0.01-0.01l14.88,9.75l-5.15-7.86l-4.6-7.02l0,0
				c0.21,0.01,4.74,0.28,8.4,3.83c2.75,2.67,8.41,1.7,9.46-2.35C172.96,564.03,168.51,567.58,164.79,561.19z"/>
		</g>
		<g>
			<g>
				<g>
					<path d="M218.83,544.46c-0.91-3.24-2.23-6.73-6.65-6.73c-3.91,0-5.63,2.83-5.63,5.57c0,3.69,2.44,5.42,6.44,7.49
						c3.96,2.02,8.78,4.4,8.78,10.07c0,5.31-4.52,9.57-11.27,9.57c-2.08,0-3.7-0.41-4.97-0.76c-1.27-0.46-2.03-0.81-2.49-1.06
						c-0.41-1.06-1.07-5.42-1.37-7.84l1.47-0.35c0.81,3.09,3.1,8.2,8.32,8.2c3.81,0,6.09-2.38,6.09-6.07c0-3.74-2.79-5.52-6.6-7.54
						c-3.25-1.72-8.37-4.25-8.37-9.97c0-4.86,3.91-9.01,10.45-9.01c2.33,0,4.47,0.56,6.39,1.16c0.2,1.82,0.46,3.8,0.86,6.98
						L218.83,544.46z"/>
					<path d="M252.87,569.66v-1.32c2.99-0.3,3.55-0.51,3.55-4.1v-8.45c0-3.59-1.27-5.87-4.47-5.87c-1.83,0-3.76,1.01-5.68,2.63
						c0.1,0.61,0.15,1.16,0.15,2.13v9.87c0,3.19,0.46,3.49,3.25,3.8v1.32h-10.86v-1.32c3.15-0.3,3.6-0.56,3.6-3.9v-8.7
						c0-3.74-1.32-5.82-4.42-5.82c-2.03,0-4.01,1.37-5.53,2.63v11.89c0,3.29,0.41,3.59,2.89,3.9v1.32h-10.71v-1.32
						c3.35-0.3,3.81-0.61,3.81-3.9v-10.48c0-3.24-0.15-3.49-3.1-3.95v-1.16c2.23-0.41,4.82-1.06,7.05-2.07v4.1
						c1.07-0.71,2.18-1.62,3.7-2.58c1.32-0.81,2.54-1.37,4.16-1.37c2.44,0,4.62,1.52,5.63,4.15c1.47-1.11,2.94-2.07,4.21-2.83
						c1.07-0.71,2.39-1.32,3.81-1.32c3.96,0,6.45,2.78,6.45,7.74v9.77c0,3.39,0.41,3.59,3.3,3.9v1.32H252.87z"/>
					<path d="M266.47,569.66v-1.32c3.2-0.3,3.55-0.61,3.55-4.05v-10.43c0-3.14-0.15-3.34-3.2-3.85v-1.22
						c2.59-0.4,4.97-1.06,7.21-1.97v17.46c0,3.44,0.36,3.74,3.6,4.05v1.32H266.47z M269.16,539.95c0-1.52,1.22-2.63,2.59-2.63
						c1.42,0,2.54,1.11,2.54,2.63c0,1.37-1.12,2.58-2.59,2.58C270.38,542.53,269.16,541.32,269.16,539.95z"/>
					<path d="M289.51,569.61c-0.86,0.46-1.67,0.66-2.13,0.66c-3.2,0-4.97-2.03-4.97-6.02v-14.73h-3.5l-0.2-0.51l1.37-1.47h2.33
						v-3.69l3.3-3.34l0.71,0.1v6.93h5.73c0.46,0.51,0.3,1.62-0.3,1.97h-5.43v13.01c0,4.1,1.67,4.86,2.94,4.86
						c1.27,0,2.44-0.51,3.15-0.86l0.46,1.32L289.51,569.61z"/>
					<path d="M308.94,569.66v-1.32c2.94-0.3,3.35-0.61,3.35-3.9v-8.4c0-4.15-1.57-6.22-4.97-6.22c-1.93,0-3.86,0.96-5.28,2.58v12.04
						c0,3.24,0.25,3.59,3.25,3.9v1.32h-10.76v-1.32c3.05-0.25,3.5-0.56,3.5-3.9v-24.14c0-3.19-0.1-3.44-3.45-3.74v-1.16
						c2.44-0.35,5.48-1.16,7.46-1.77v17.01c1.78-1.82,4.52-3.69,7.26-3.69c4.11,0,7,2.58,7,8.65v8.86c0,3.34,0.36,3.64,3.35,3.9
						v1.32H308.94z"/>
					<path d="M335.22,553.52c-0.96-2.99-2.74-5.01-5.23-5.01c-1.93,0-3.3,1.52-3.3,3.49c0,2.28,2.03,3.44,4.31,4.4
						c3.81,1.57,6.39,3.39,6.39,6.88c0,4.61-4.31,6.98-8.37,6.98c-2.59,0-4.92-0.96-5.84-1.72c-0.36-0.71-0.81-4.15-0.81-5.97
						l1.32-0.25c0.91,3.34,3.2,6.28,6.24,6.28c1.88,0,3.6-1.42,3.6-3.54c0-2.23-1.47-3.44-4.01-4.61c-3.04-1.42-6.34-3.09-6.34-6.98
						c0-3.54,3.04-6.53,7.71-6.53c2.08,0,3.45,0.46,4.52,0.86c0.41,1.16,0.96,4.15,1.12,5.41L335.22,553.52z"/>
					<path d="M363.33,558.22c0,8.15-5.99,12.05-11.01,12.05c-6.95,0-11.11-5.57-11.11-11.18c0-8.35,6.5-12.15,11.11-12.15
						C358.61,546.94,363.33,551.95,363.33,558.22z M345.93,557.46c0,6.38,2.79,11.13,6.95,11.13c3.15,0,5.73-2.33,5.73-9.26
						c0-5.92-2.39-10.73-6.8-10.73C348.67,548.61,345.93,551.74,345.93,557.46z"/>
					<path d="M380.58,569.66v-1.32c2.99-0.3,3.35-0.71,3.35-4.2v-8.45c0-3.49-1.22-5.77-4.62-5.77c-2.03,0-4.01,1.26-5.53,2.58
						v11.89c0,3.44,0.3,3.64,3.3,3.95v1.32h-11.01v-1.32c3.45-0.35,3.7-0.61,3.7-3.95v-10.48c0-3.24-0.3-3.39-3.04-3.9v-1.16
						c2.44-0.45,4.82-1.06,7.05-2.07v4.05c1.01-0.76,2.13-1.52,3.4-2.38c1.42-0.91,2.74-1.52,4.21-1.52c4.01,0,6.55,2.78,6.55,7.69
						v9.77c0,3.44,0.25,3.64,3.2,3.95v1.32H380.58z"/>
					<path d="M393.98,569.66v-1.32c3.2-0.3,3.55-0.61,3.55-4.05v-10.43c0-3.14-0.15-3.34-3.2-3.85v-1.22
						c2.59-0.4,4.97-1.06,7.21-1.97v17.46c0,3.44,0.36,3.74,3.6,4.05v1.32H393.98z M396.67,539.95c0-1.52,1.22-2.63,2.59-2.63
						c1.42,0,2.54,1.11,2.54,2.63c0,1.37-1.12,2.58-2.59,2.58C397.88,542.53,396.67,541.32,396.67,539.95z"/>
					<path d="M423.76,570.27c-0.76,0-1.83-0.46-2.39-0.96c-0.66-0.71-0.96-1.42-1.22-2.28c-2.03,1.37-4.47,3.24-5.99,3.24
						c-3.6,0-6.09-2.99-6.09-6.17c0-2.48,1.32-4.05,4.11-5.01c3.04-1.01,6.75-2.38,7.87-3.29v-0.91c0-3.64-1.73-5.72-4.26-5.72
						c-1.02,0-1.78,0.4-2.28,1.01c-0.66,0.66-1.12,1.77-1.52,3.34c-0.2,0.81-0.76,1.16-1.47,1.16c-0.91,0-2.23-1.01-2.23-2.18
						c0-0.76,0.66-1.32,1.62-2.02c1.42-1.01,4.72-2.99,7.61-3.54c1.52,0,3.05,0.46,4.16,1.37c1.78,1.47,2.28,3.54,2.28,6.17v9.41
						c0,2.28,0.91,3.04,1.78,3.04c0.61,0,1.32-0.25,1.83-0.56l0.51,1.32L423.76,570.27z M420.06,557.51
						c-1.07,0.56-3.5,1.62-4.57,2.13c-1.98,0.91-3.1,1.87-3.1,3.69c0,2.63,2.03,3.9,3.6,3.9c1.32-0.05,3.1-0.91,4.06-1.82V557.51z"
						/>
					<path d="M443.91,569.66v-1.32c2.99-0.3,3.35-0.71,3.35-4.2v-8.45c0-3.49-1.22-5.77-4.62-5.77c-2.03,0-4.01,1.26-5.53,2.58
						v11.89c0,3.44,0.3,3.64,3.3,3.95v1.32h-11.01v-1.32c3.45-0.35,3.7-0.61,3.7-3.95v-10.48c0-3.24-0.3-3.39-3.04-3.9v-1.16
						c2.44-0.45,4.82-1.06,7.05-2.07v4.05c1.02-0.76,2.13-1.52,3.4-2.38c1.42-0.91,2.74-1.52,4.21-1.52c4.01,0,6.55,2.78,6.55,7.69
						v9.77c0,3.44,0.25,3.64,3.2,3.95v1.32H443.91z"/>
					<path d="M483.59,536.76c6.44,0,11.21,1.32,14.36,4.3c2.49,2.43,4.26,6.12,4.26,10.88c0,6.07-2.33,10.58-6.24,13.51
						c-3.81,2.94-8.83,4.2-15.07,4.2h-12.03v-1.37c4.36-0.3,4.77-0.61,4.77-4.91v-20.3c0-4.35-0.41-4.55-4.31-4.86v-1.47H483.59z
						 M478,563.03c0,3.85,1.68,4.81,5.38,4.81c9.49,0,13.85-7.09,13.85-15.18c0-5.21-1.93-9.72-5.99-12.1
						c-2.28-1.47-5.23-2.08-8.63-2.08c-2.13,0-3.45,0.25-3.96,0.61c-0.51,0.36-0.66,0.91-0.66,2.88V563.03z"/>
					<path d="M524.84,565.36c-3.2,4-6.7,4.91-8.27,4.91c-6.24,0-9.9-5.06-9.9-10.78c0-3.49,1.27-6.58,3.35-8.86
						c2.08-2.33,4.82-3.69,7.46-3.69c4.21,0,7.61,3.75,7.61,7.69c0,1.01-0.25,1.42-1.17,1.62c-0.86,0.15-7.21,0.66-13.25,0.86
						c0.05,6.88,4.01,9.72,7.56,9.72c2.03,0,3.96-0.81,5.78-2.53L524.84,565.36z M510.93,555.03c2.84,0,5.63-0.05,8.58-0.15
						c0.91,0,1.22-0.3,1.22-1.01c0.05-2.63-1.68-5.06-4.47-5.06C513.93,548.81,511.69,550.93,510.93,555.03z"/>
					<path d="M541.28,553.52c-0.96-2.99-2.74-5.01-5.23-5.01c-1.93,0-3.3,1.52-3.3,3.49c0,2.28,2.03,3.44,4.31,4.4
						c3.81,1.57,6.39,3.39,6.39,6.88c0,4.61-4.31,6.98-8.37,6.98c-2.59,0-4.92-0.96-5.84-1.72c-0.36-0.71-0.81-4.15-0.81-5.97
						l1.32-0.25c0.91,3.34,3.2,6.28,6.24,6.28c1.88,0,3.6-1.42,3.6-3.54c0-2.23-1.47-3.44-4.01-4.61c-3.04-1.42-6.34-3.09-6.34-6.98
						c0-3.54,3.04-6.53,7.71-6.53c2.08,0,3.45,0.46,4.52,0.86c0.41,1.16,0.96,4.15,1.12,5.41L541.28,553.52z"/>
					<path d="M546.6,569.66v-1.32c3.2-0.3,3.55-0.61,3.55-4.05v-10.43c0-3.14-0.15-3.34-3.2-3.85v-1.22
						c2.59-0.4,4.97-1.06,7.21-1.97v17.46c0,3.44,0.35,3.74,3.6,4.05v1.32H546.6z M549.29,539.95c0-1.52,1.22-2.63,2.59-2.63
						c1.42,0,2.54,1.11,2.54,2.63c0,1.37-1.12,2.58-2.59,2.58C550.51,542.53,549.29,541.32,549.29,539.95z"/>
					<path d="M582.32,547.9c-0.46,0.81-1.47,2.13-2.28,2.58l-2.89-0.15c0.96,1.11,1.52,2.68,1.52,4.51c0,5.47-4.57,8.1-8.88,8.1
						c-0.86,0-1.78-0.15-2.59-0.25c-0.71,0.45-1.52,1.37-1.52,2.08c0,1.01,0.91,1.97,3.2,1.97c1.83,0,3.65-0.05,5.33-0.05
						c3.15,0,7.31,1.01,7.31,5.97c0,5.11-5.94,10.02-12.69,10.02c-5.63,0-8.73-3.29-8.78-6.17c0-1.11,0.46-2.07,1.22-2.83
						c1.02-1.01,2.99-2.63,4.21-3.54c-1.83-0.56-3.1-1.72-3.75-2.78c-0.46-0.76-0.61-1.62-0.56-2.13c2.03-0.76,3.65-2.07,4.47-3.09
						c-2.28-0.96-4.47-3.34-4.47-6.78c0-5.77,5.18-8.4,9.08-8.4c1.73,0,3.4,0.46,4.87,1.27c2.49-0.1,5.08-0.4,6.9-0.71L582.32,547.9
						z M566.39,571.33c-1.32,1.06-2.33,2.48-2.33,3.95c0,2.73,2.94,4.81,6.7,4.81c4.82,0,7.31-2.48,7.31-5.62
						c0-1.72-0.86-2.99-2.33-3.59c-1.27-0.51-2.74-0.66-4.87-0.66C568.42,570.22,567.3,570.52,566.39,571.33z M565.53,554.53
						c0,3.95,1.93,6.78,4.77,6.78c2.23-0.05,4.21-2.03,4.21-6.02s-1.88-6.83-4.77-6.83C567.51,548.45,565.53,550.58,565.53,554.53z"
						/>
					<path d="M598.56,569.66v-1.32c2.99-0.3,3.35-0.71,3.35-4.2v-8.45c0-3.49-1.22-5.77-4.62-5.77c-2.03,0-4.01,1.26-5.53,2.58
						v11.89c0,3.44,0.3,3.64,3.3,3.95v1.32h-11.01v-1.32c3.45-0.35,3.7-0.61,3.7-3.95v-10.48c0-3.24-0.31-3.39-3.04-3.9v-1.16
						c2.44-0.45,4.82-1.06,7.05-2.07v4.05c1.02-0.76,2.13-1.52,3.4-2.38c1.42-0.91,2.74-1.52,4.21-1.52c4.01,0,6.55,2.78,6.55,7.69
						v9.77c0,3.44,0.25,3.64,3.2,3.95v1.32H598.56z"/>
					<path d="M652.19,569.66v-1.42c4.11-0.4,4.31-0.66,4.26-6.02l-0.15-20.65h-0.2l-12.38,27.73h-1.02l-11.37-27.03h-0.1
						l-0.76,14.42c-0.2,4.15-0.2,6.38-0.15,8.4c0.1,2.43,1.32,2.78,4.67,3.14v1.42h-11.82v-1.42c2.94-0.35,3.96-0.91,4.31-3.04
						c0.25-1.77,0.56-4,0.96-9.26l0.71-10.53c0.46-6.58,0.2-6.78-4.42-7.24v-1.42h8.32l11.57,25.3l11.72-25.3h8.63v1.42
						c-4.47,0.41-4.82,0.51-4.67,5.72l0.51,18.32c0.15,5.36,0.3,5.62,4.72,6.02v1.42H652.19z"/>
					<path d="M691.67,568.44c-2.33,0.36-4.92,1.06-7.46,1.82l-0.3-0.3v-3.59c-1.17,0.86-2.33,1.77-3.75,2.63
						c-1.47,0.86-2.54,1.27-3.91,1.27c-3.4,0-6.29-2.07-6.29-7.54v-9.92c0-2.78-0.2-2.99-3.1-3.54v-1.16
						c2.39-0.15,4.82-0.45,7.26-0.91c-0.15,1.57-0.15,3.95-0.15,7.39v6.78c0,4.5,2.18,5.72,4.47,5.72c1.83,0,3.75-0.76,5.48-2.43
						v-11.79c0-2.88-0.3-3.09-3.96-3.59v-1.16c2.64-0.15,5.28-0.35,7.97-0.91v16.9c0,2.53,0.41,2.89,2.33,2.99l1.42,0.1V568.44z"/>
					<path d="M707.09,553.52c-0.96-2.99-2.74-5.01-5.23-5.01c-1.93,0-3.3,1.52-3.3,3.49c0,2.28,2.03,3.44,4.31,4.4
						c3.81,1.57,6.39,3.39,6.39,6.88c0,4.61-4.31,6.98-8.37,6.98c-2.59,0-4.92-0.96-5.84-1.72c-0.36-0.71-0.81-4.15-0.81-5.97
						l1.32-0.25c0.91,3.34,3.2,6.28,6.24,6.28c1.88,0,3.6-1.42,3.6-3.54c0-2.23-1.47-3.44-4.01-4.61c-3.04-1.42-6.34-3.09-6.34-6.98
						c0-3.54,3.04-6.53,7.71-6.53c2.08,0,3.45,0.46,4.52,0.86c0.41,1.16,0.96,4.15,1.12,5.41L707.09,553.52z"/>
					<path d="M731.24,565.36c-3.2,4-6.7,4.91-8.27,4.91c-6.24,0-9.9-5.06-9.9-10.78c0-3.49,1.27-6.58,3.35-8.86
						c2.08-2.33,4.82-3.69,7.46-3.69c4.21,0,7.61,3.75,7.61,7.69c0,1.01-0.25,1.42-1.17,1.62c-0.86,0.15-7.21,0.66-13.25,0.86
						c0.05,6.88,4.01,9.72,7.56,9.72c2.03,0,3.96-0.81,5.78-2.53L731.24,565.36z M717.34,555.03c2.84,0,5.63-0.05,8.58-0.15
						c0.91,0,1.22-0.3,1.22-1.01c0.05-2.63-1.68-5.06-4.47-5.06C720.33,548.81,718.1,550.93,717.34,555.03z"/>
					<path d="M759.05,568.44c-2.33,0.36-4.92,1.06-7.46,1.82l-0.3-0.3v-3.59c-1.17,0.86-2.33,1.77-3.75,2.63
						c-1.47,0.86-2.54,1.27-3.91,1.27c-3.4,0-6.29-2.07-6.29-7.54v-9.92c0-2.78-0.2-2.99-3.1-3.54v-1.16
						c2.39-0.15,4.82-0.45,7.26-0.91c-0.15,1.57-0.15,3.95-0.15,7.39v6.78c0,4.5,2.18,5.72,4.47,5.72c1.83,0,3.75-0.76,5.48-2.43
						v-11.79c0-2.88-0.3-3.09-3.96-3.59v-1.16c2.64-0.15,5.28-0.35,7.97-0.91v16.9c0,2.53,0.41,2.89,2.33,2.99l1.42,0.1V568.44z"/>
					<path d="M789.29,569.66v-1.32c2.99-0.3,3.55-0.51,3.55-4.1v-8.45c0-3.59-1.27-5.87-4.47-5.87c-1.83,0-3.75,1.01-5.68,2.63
						c0.1,0.61,0.15,1.16,0.15,2.13v9.87c0,3.19,0.46,3.49,3.25,3.8v1.32h-10.86v-1.32c3.15-0.3,3.6-0.56,3.6-3.9v-8.7
						c0-3.74-1.32-5.82-4.42-5.82c-2.03,0-4.01,1.37-5.53,2.63v11.89c0,3.29,0.41,3.59,2.89,3.9v1.32h-10.71v-1.32
						c3.35-0.3,3.81-0.61,3.81-3.9v-10.48c0-3.24-0.15-3.49-3.1-3.95v-1.16c2.23-0.41,4.82-1.06,7.05-2.07v4.1
						c1.07-0.71,2.18-1.62,3.7-2.58c1.32-0.81,2.54-1.37,4.16-1.37c2.44,0,4.62,1.52,5.63,4.15c1.47-1.11,2.94-2.07,4.21-2.83
						c1.07-0.71,2.39-1.32,3.81-1.32c3.96,0,6.44,2.78,6.44,7.74v9.77c0,3.39,0.41,3.59,3.3,3.9v1.32H789.29z"/>
				</g>
			</g>
		</g>
	</g>
</g>
</svg>
