<?xml version="1.0" encoding="utf-8"?>
<!-- Generator: Adobe Illustrator 25.0.0, SVG Export Plug-In . SVG Version: 6.00 Build 0)  -->
<svg version="1.1" id="Layer_1" xmlns="http://www.w3.org/2000/svg" xmlns:xlink="http://www.w3.org/1999/xlink" x="0px" y="0px"
	 viewBox="0 0 900 300" style="enable-background:new 0 0 900 300;" xml:space="preserve">
<style type="text/css">
	.st0{fill:#FFFFFF;}
</style>
<g>
	<g>
		<g>
			<g>
				<path class="st0" d="M168.98,159.64c-3.06-5.27-7.89-5.34-8.49-5.33c0,0,0-0.01,0-0.02l20.43-4.22l-20.41-4.29l0-0.01
					c0.21-0.19,4.19-3.69,10.14-3.76c4.49-0.06,8.39-5.55,5.92-9.78c0,0-0.75,6.64-9.13,4.41c-5.89-1.57-9.36,1.81-9.77,2.24l0-0.01
					l11.46-17.43l-17.47,11.4c0,0-0.01,0-0.01,0c0.01-0.26,0.34-5.56,4.51-9.84c3.14-3.22,2.01-9.86-2.73-11.1
					c0,0,4.16,5.22-3.34,9.57c-5.27,3.06-5.34,7.9-5.33,8.49l-0.01,0l-4.22-20.43l-4.29,20.41c0,0-0.01,0-0.01,0
					c-0.17-0.19-3.69-4.17-3.77-10.14c-0.06-4.49-5.55-8.39-9.78-5.92c0,0,6.64,0.75,4.41,9.13c-1.57,5.91,1.83,9.38,2.24,9.78l0,0
					l-17.43-11.46l0,0l0,0l9.29,14.24l2.11,3.23c0,0,0,0,0,0.01c-0.17-0.01-5.53-0.31-9.84-4.51c-3.22-3.14-9.86-2.01-11.1,2.73
					c0,0,5.22-4.16,9.57,3.34c3.07,5.29,7.93,5.34,8.5,5.33c0,0,0,0.01,0,0.01L100,149.92l20.41,4.29l0,0
					c-0.13,0.12-4.13,3.69-10.15,3.77c-4.49,0.06-8.39,5.55-5.92,9.78c0,0,0.75-6.64,9.13-4.41c5.92,1.57,9.39-1.84,9.78-2.24
					c0,0.01,0.01,0.01,0.01,0.02l-11.46,17.42l17.47-11.4c-0.01,0.18-0.31,5.53-4.51,9.84c-3.14,3.22-2.01,9.85,2.73,11.1
					c0,0-4.16-5.22,3.34-9.57c5.29-3.07,5.34-7.92,5.33-8.5c0,0,0.01,0,0.02,0.01l4.21,20.42l4.29-20.41l0,0
					c0.15,0.17,3.69,4.16,3.77,10.15c0.06,4.49,5.55,8.39,9.78,5.91c0,0-6.64-0.75-4.41-9.12c1.57-5.9-1.82-9.38-2.24-9.78
					c0.01,0,0.01-0.01,0.02-0.01l17.42,11.46l-6.02-9.22l-5.38-8.25l0,0c0.24,0.01,5.55,0.34,9.84,4.51
					c3.22,3.13,9.86,2.01,11.1-2.73C178.55,162.98,173.33,167.14,168.98,159.64z"/>
			</g>
		</g>
		<g>
			<g>
				<g>
					<path class="st0" d="M218.8,141.52c-0.91-3.25-2.23-6.75-6.65-6.75c-3.91,0-5.63,2.84-5.63,5.58c0,3.7,2.44,5.43,6.44,7.51
						c3.96,2.03,8.78,4.41,8.78,10.1c0,5.33-4.52,9.59-11.26,9.59c-2.08,0-3.7-0.41-4.97-0.76c-1.27-0.46-2.03-0.81-2.49-1.07
						c-0.41-1.07-1.07-5.43-1.37-7.87l1.47-0.36c0.81,3.09,3.1,8.22,8.32,8.22c3.81,0,6.09-2.39,6.09-6.09
						c0-3.75-2.79-5.53-6.6-7.56c-3.25-1.73-8.37-4.26-8.37-10c0-4.87,3.91-9.03,10.45-9.03c2.33,0,4.47,0.56,6.39,1.17
						c0.2,1.83,0.46,3.81,0.86,7L218.8,141.52z"/>
					<path class="st0" d="M252.84,166.79v-1.32c2.99-0.31,3.55-0.51,3.55-4.11v-8.47c0-3.6-1.27-5.89-4.47-5.89
						c-1.83,0-3.75,1.01-5.68,2.64c0.1,0.61,0.15,1.17,0.15,2.13v9.89c0,3.2,0.46,3.5,3.25,3.81v1.32h-10.86v-1.32
						c3.15-0.31,3.6-0.56,3.6-3.91v-8.73c0-3.75-1.32-5.83-4.41-5.83c-2.03,0-4.01,1.37-5.53,2.64v11.92c0,3.3,0.41,3.6,2.89,3.91
						v1.32h-10.71v-1.32c3.35-0.31,3.81-0.61,3.81-3.91v-10.5c0-3.25-0.15-3.5-3.1-3.96v-1.17c2.23-0.41,4.82-1.07,7.05-2.08v4.11
						c1.07-0.71,2.18-1.62,3.7-2.59c1.32-0.81,2.54-1.37,4.16-1.37c2.44,0,4.62,1.52,5.63,4.16c1.47-1.12,2.94-2.08,4.21-2.84
						c1.07-0.71,2.38-1.32,3.81-1.32c3.96,0,6.44,2.79,6.44,7.76v9.79c0,3.4,0.41,3.6,3.3,3.91v1.32H252.84z"/>
					<path class="st0" d="M266.44,166.79v-1.32c3.2-0.31,3.55-0.61,3.55-4.06v-10.45c0-3.15-0.15-3.35-3.2-3.86v-1.22
						c2.59-0.41,4.97-1.07,7.21-1.98v17.51c0,3.45,0.36,3.75,3.6,4.06v1.32H266.44z M269.13,137.01c0-1.52,1.22-2.64,2.59-2.64
						c1.42,0,2.54,1.12,2.54,2.64c0,1.37-1.12,2.59-2.59,2.59C270.34,139.59,269.13,138.38,269.13,137.01z"/>
					<path class="st0" d="M289.47,166.74c-0.86,0.46-1.67,0.66-2.13,0.66c-3.2,0-4.97-2.03-4.97-6.04V146.6h-3.5l-0.2-0.51
						l1.37-1.47h2.33v-3.7l3.3-3.35l0.71,0.1v6.95h5.73c0.46,0.51,0.3,1.62-0.3,1.98h-5.43v13.04c0,4.11,1.67,4.87,2.94,4.87
						c1.27,0,2.44-0.51,3.15-0.86l0.46,1.32L289.47,166.74z"/>
					<path class="st0" d="M308.9,166.79v-1.32c2.94-0.31,3.35-0.61,3.35-3.91v-8.42c0-4.16-1.57-6.24-4.97-6.24
						c-1.93,0-3.86,0.96-5.28,2.59v12.08c0,3.25,0.25,3.6,3.25,3.91v1.32h-10.76v-1.32c3.04-0.25,3.5-0.56,3.5-3.91v-24.2
						c0-3.2-0.1-3.45-3.45-3.75v-1.17c2.44-0.36,5.48-1.17,7.46-1.78v17.05c1.78-1.83,4.52-3.7,7.26-3.7c4.11,0,7,2.59,7,8.68v8.88
						c0,3.35,0.36,3.65,3.35,3.91v1.32H308.9z"/>
					<path class="st0" d="M335.18,150.6c-0.96-2.99-2.74-5.02-5.23-5.02c-1.93,0-3.3,1.52-3.3,3.5c0,2.28,2.03,3.45,4.31,4.41
						c3.81,1.57,6.39,3.4,6.39,6.9c0,4.62-4.31,7-8.37,7c-2.59,0-4.92-0.96-5.84-1.73c-0.36-0.71-0.81-4.16-0.81-5.99l1.32-0.25
						c0.91,3.35,3.2,6.29,6.24,6.29c1.88,0,3.6-1.42,3.6-3.55c0-2.23-1.47-3.45-4.01-4.62c-3.04-1.42-6.34-3.09-6.34-7
						c0-3.55,3.04-6.55,7.71-6.55c2.08,0,3.45,0.46,4.52,0.86c0.41,1.17,0.96,4.16,1.12,5.43L335.18,150.6z"/>
					<path class="st0" d="M363.29,155.32c0,8.17-5.99,12.08-11.01,12.08c-6.95,0-11.11-5.58-11.11-11.21
						c0-8.37,6.49-12.18,11.11-12.18C358.57,144.01,363.29,149.03,363.29,155.32z M345.88,154.56c0,6.39,2.79,11.16,6.95,11.16
						c3.15,0,5.73-2.33,5.73-9.29c0-5.94-2.38-10.76-6.8-10.76C348.62,145.68,345.88,148.83,345.88,154.56z"/>
					<path class="st0" d="M380.54,166.79v-1.32c2.99-0.31,3.35-0.71,3.35-4.21v-8.47c0-3.5-1.22-5.78-4.62-5.78
						c-2.03,0-4.01,1.27-5.53,2.59v11.92c0,3.45,0.3,3.65,3.3,3.96v1.32h-11.01v-1.32c3.45-0.36,3.7-0.61,3.7-3.96v-10.5
						c0-3.25-0.3-3.4-3.04-3.91v-1.17c2.44-0.46,4.82-1.07,7.05-2.08v4.06c1.01-0.76,2.13-1.52,3.4-2.39
						c1.42-0.91,2.74-1.52,4.21-1.52c4.01,0,6.55,2.79,6.55,7.71v9.79c0,3.45,0.25,3.65,3.2,3.96v1.32H380.54z"/>
					<path class="st0" d="M393.93,166.79v-1.32c3.2-0.31,3.55-0.61,3.55-4.06v-10.45c0-3.15-0.15-3.35-3.2-3.86v-1.22
						c2.59-0.41,4.97-1.07,7.21-1.98v17.51c0,3.45,0.36,3.75,3.6,4.06v1.32H393.93z M396.62,137.01c0-1.52,1.22-2.64,2.59-2.64
						c1.42,0,2.54,1.12,2.54,2.64c0,1.37-1.12,2.59-2.59,2.59C397.84,139.59,396.62,138.38,396.62,137.01z"/>
					<path class="st0" d="M423.71,167.4c-0.76,0-1.83-0.46-2.38-0.96c-0.66-0.71-0.96-1.42-1.22-2.28
						c-2.03,1.37-4.47,3.25-5.99,3.25c-3.6,0-6.09-2.99-6.09-6.19c0-2.49,1.32-4.06,4.11-5.02c3.04-1.02,6.75-2.39,7.87-3.3v-0.91
						c0-3.65-1.73-5.73-4.26-5.73c-1.02,0-1.78,0.4-2.28,1.01c-0.66,0.66-1.12,1.78-1.52,3.35c-0.2,0.81-0.76,1.17-1.47,1.17
						c-0.91,0-2.23-1.02-2.23-2.18c0-0.76,0.66-1.32,1.62-2.03c1.42-1.02,4.72-2.99,7.61-3.55c1.52,0,3.04,0.46,4.16,1.37
						c1.78,1.47,2.28,3.55,2.28,6.19v9.44c0,2.28,0.91,3.04,1.78,3.04c0.61,0,1.32-0.25,1.83-0.56l0.51,1.32L423.71,167.4z
						 M420.01,154.61c-1.07,0.56-3.5,1.62-4.57,2.13c-1.98,0.91-3.1,1.88-3.1,3.7c0,2.64,2.03,3.91,3.6,3.91
						c1.32-0.05,3.1-0.91,4.06-1.83V154.61z"/>
					<path class="st0" d="M443.85,166.79v-1.32c2.99-0.31,3.35-0.71,3.35-4.21v-8.47c0-3.5-1.22-5.78-4.62-5.78
						c-2.03,0-4.01,1.27-5.53,2.59v11.92c0,3.45,0.3,3.65,3.3,3.96v1.32h-11.01v-1.32c3.45-0.36,3.7-0.61,3.7-3.96v-10.5
						c0-3.25-0.3-3.4-3.04-3.91v-1.17c2.44-0.46,4.82-1.07,7.05-2.08v4.06c1.02-0.76,2.13-1.52,3.4-2.39
						c1.42-0.91,2.74-1.52,4.21-1.52c4.01,0,6.55,2.79,6.55,7.71v9.79c0,3.45,0.25,3.65,3.2,3.96v1.32H443.85z"/>
					<path class="st0" d="M483.53,133.81c6.44,0,11.21,1.32,14.36,4.31c2.49,2.44,4.26,6.14,4.26,10.91c0,6.09-2.33,10.6-6.24,13.55
						c-3.81,2.94-8.83,4.21-15.07,4.21h-12.03v-1.37c4.36-0.3,4.77-0.61,4.77-4.92v-20.35c0-4.36-0.41-4.57-4.31-4.87v-1.47H483.53z
						 M477.94,160.14c0,3.86,1.68,4.82,5.38,4.82c9.49,0,13.85-7.1,13.85-15.22c0-5.23-1.93-9.74-5.99-12.13
						c-2.28-1.47-5.23-2.08-8.63-2.08c-2.13,0-3.45,0.25-3.96,0.61c-0.51,0.36-0.66,0.91-0.66,2.89V160.14z"/>
					<path class="st0" d="M524.77,162.48c-3.2,4.01-6.7,4.92-8.27,4.92c-6.24,0-9.89-5.07-9.89-10.81c0-3.5,1.27-6.6,3.35-8.88
						c2.08-2.33,4.82-3.7,7.46-3.7c4.21,0,7.61,3.76,7.61,7.71c0,1.02-0.25,1.42-1.17,1.62c-0.86,0.15-7.2,0.66-13.24,0.86
						c0.05,6.9,4.01,9.74,7.56,9.74c2.03,0,3.96-0.81,5.78-2.54L524.77,162.48z M510.87,152.13c2.84,0,5.63-0.05,8.58-0.15
						c0.91,0,1.22-0.3,1.22-1.02c0.05-2.64-1.68-5.07-4.47-5.07C513.86,145.88,511.63,148.02,510.87,152.13z"/>
					<path class="st0" d="M541.21,150.6c-0.96-2.99-2.74-5.02-5.23-5.02c-1.93,0-3.3,1.52-3.3,3.5c0,2.28,2.03,3.45,4.31,4.41
						c3.81,1.57,6.39,3.4,6.39,6.9c0,4.62-4.31,7-8.37,7c-2.59,0-4.92-0.96-5.83-1.73c-0.36-0.71-0.81-4.16-0.81-5.99l1.32-0.25
						c0.91,3.35,3.2,6.29,6.24,6.29c1.88,0,3.6-1.42,3.6-3.55c0-2.23-1.47-3.45-4.01-4.62c-3.04-1.42-6.34-3.09-6.34-7
						c0-3.55,3.04-6.55,7.71-6.55c2.08,0,3.45,0.46,4.52,0.86c0.41,1.17,0.96,4.16,1.12,5.43L541.21,150.6z"/>
					<path class="st0" d="M546.53,166.79v-1.32c3.2-0.31,3.55-0.61,3.55-4.06v-10.45c0-3.15-0.15-3.35-3.2-3.86v-1.22
						c2.59-0.41,4.97-1.07,7.2-1.98v17.51c0,3.45,0.35,3.75,3.6,4.06v1.32H546.53z M549.22,137.01c0-1.52,1.22-2.64,2.59-2.64
						c1.42,0,2.54,1.12,2.54,2.64c0,1.37-1.12,2.59-2.59,2.59C550.44,139.59,549.22,138.38,549.22,137.01z"/>
					<path class="st0" d="M582.25,144.97c-0.46,0.81-1.47,2.13-2.28,2.59l-2.89-0.15c0.96,1.12,1.52,2.69,1.52,4.52
						c0,5.48-4.57,8.12-8.88,8.12c-0.86,0-1.78-0.15-2.59-0.25c-0.71,0.46-1.52,1.37-1.52,2.08c0,1.01,0.91,1.98,3.2,1.98
						c1.83,0,3.65-0.05,5.33-0.05c3.15,0,7.31,1.01,7.31,5.99c0,5.13-5.94,10.05-12.69,10.05c-5.63,0-8.73-3.3-8.78-6.19
						c0-1.12,0.46-2.08,1.22-2.84c1.02-1.02,2.99-2.64,4.21-3.55c-1.83-0.56-3.1-1.73-3.75-2.79c-0.46-0.76-0.61-1.62-0.56-2.13
						c2.03-0.76,3.65-2.08,4.47-3.09c-2.28-0.96-4.47-3.35-4.47-6.8c0-5.78,5.18-8.42,9.08-8.42c1.73,0,3.4,0.46,4.87,1.27
						c2.49-0.1,5.07-0.41,6.9-0.71L582.25,144.97z M566.32,168.46c-1.32,1.07-2.33,2.49-2.33,3.96c0,2.74,2.94,4.82,6.7,4.82
						c4.82,0,7.31-2.49,7.31-5.63c0-1.73-0.86-2.99-2.33-3.6c-1.27-0.51-2.74-0.66-4.87-0.66
						C568.35,167.35,567.23,167.65,566.32,168.46z M565.46,151.62c0,3.96,1.93,6.8,4.77,6.8c2.23-0.05,4.21-2.03,4.21-6.04
						s-1.88-6.85-4.77-6.85C567.44,145.53,565.46,147.66,565.46,151.62z"/>
					<path class="st0" d="M598.48,166.79v-1.32c2.99-0.31,3.35-0.71,3.35-4.21v-8.47c0-3.5-1.22-5.78-4.62-5.78
						c-2.03,0-4.01,1.27-5.53,2.59v11.92c0,3.45,0.3,3.65,3.3,3.96v1.32h-11.01v-1.32c3.45-0.36,3.7-0.61,3.7-3.96v-10.5
						c0-3.25-0.31-3.4-3.04-3.91v-1.17c2.44-0.46,4.82-1.07,7.05-2.08v4.06c1.02-0.76,2.13-1.52,3.4-2.39
						c1.42-0.91,2.74-1.52,4.21-1.52c4.01,0,6.55,2.79,6.55,7.71v9.79c0,3.45,0.25,3.65,3.2,3.96v1.32H598.48z"/>
					<path class="st0" d="M652.11,166.79v-1.42c4.11-0.41,4.31-0.66,4.26-6.04l-0.15-20.7h-0.2l-12.38,27.81h-1.02l-11.37-27.1h-0.1
						l-0.76,14.46c-0.2,4.16-0.2,6.39-0.15,8.42c0.1,2.44,1.32,2.79,4.67,3.15v1.42h-11.82v-1.42c2.94-0.36,3.96-0.91,4.31-3.04
						c0.25-1.78,0.56-4.01,0.96-9.29l0.71-10.55c0.46-6.6,0.2-6.8-4.41-7.26v-1.42h8.32l11.57,25.37l11.72-25.37h8.63v1.42
						c-4.46,0.41-4.82,0.51-4.67,5.73l0.51,18.37c0.15,5.38,0.3,5.63,4.72,6.04v1.42H652.11z"/>
					<path class="st0" d="M691.58,165.57c-2.33,0.36-4.92,1.07-7.46,1.83l-0.3-0.3v-3.6c-1.17,0.86-2.33,1.78-3.75,2.64
						c-1.47,0.86-2.54,1.27-3.91,1.27c-3.4,0-6.29-2.08-6.29-7.56v-9.95c0-2.79-0.2-2.99-3.1-3.55v-1.17
						c2.39-0.15,4.82-0.46,7.26-0.91c-0.15,1.57-0.15,3.96-0.15,7.41v6.8c0,4.52,2.18,5.73,4.47,5.73c1.83,0,3.75-0.76,5.48-2.44
						v-11.82c0-2.89-0.3-3.1-3.96-3.6v-1.17c2.64-0.15,5.28-0.36,7.97-0.91v16.95c0,2.54,0.41,2.89,2.33,2.99l1.42,0.1V165.57z"/>
					<path class="st0" d="M707,150.6c-0.96-2.99-2.74-5.02-5.23-5.02c-1.93,0-3.3,1.52-3.3,3.5c0,2.28,2.03,3.45,4.31,4.41
						c3.81,1.57,6.39,3.4,6.39,6.9c0,4.62-4.31,7-8.37,7c-2.59,0-4.92-0.96-5.83-1.73c-0.35-0.71-0.81-4.16-0.81-5.99l1.32-0.25
						c0.91,3.35,3.2,6.29,6.24,6.29c1.88,0,3.6-1.42,3.6-3.55c0-2.23-1.47-3.45-4.01-4.62c-3.04-1.42-6.34-3.09-6.34-7
						c0-3.55,3.04-6.55,7.71-6.55c2.08,0,3.45,0.46,4.52,0.86c0.41,1.17,0.96,4.16,1.12,5.43L707,150.6z"/>
					<path class="st0" d="M731.15,162.48c-3.2,4.01-6.7,4.92-8.27,4.92c-6.24,0-9.89-5.07-9.89-10.81c0-3.5,1.27-6.6,3.35-8.88
						c2.08-2.33,4.82-3.7,7.46-3.7c4.21,0,7.61,3.76,7.61,7.71c0,1.02-0.25,1.42-1.17,1.62c-0.86,0.15-7.2,0.66-13.24,0.86
						c0.05,6.9,4.01,9.74,7.56,9.74c2.03,0,3.96-0.81,5.78-2.54L731.15,162.48z M717.25,152.13c2.84,0,5.63-0.05,8.58-0.15
						c0.91,0,1.22-0.3,1.22-1.02c0.05-2.64-1.68-5.07-4.47-5.07C720.24,145.88,718.01,148.02,717.25,152.13z"/>
					<path class="st0" d="M758.95,165.57c-2.33,0.36-4.92,1.07-7.46,1.83l-0.3-0.3v-3.6c-1.17,0.86-2.33,1.78-3.75,2.64
						c-1.47,0.86-2.54,1.27-3.91,1.27c-3.4,0-6.29-2.08-6.29-7.56v-9.95c0-2.79-0.2-2.99-3.1-3.55v-1.17
						c2.39-0.15,4.82-0.46,7.26-0.91c-0.15,1.57-0.15,3.96-0.15,7.41v6.8c0,4.52,2.18,5.73,4.47,5.73c1.83,0,3.75-0.76,5.48-2.44
						v-11.82c0-2.89-0.3-3.1-3.96-3.6v-1.17c2.64-0.15,5.28-0.36,7.97-0.91v16.95c0,2.54,0.41,2.89,2.33,2.99l1.42,0.1V165.57z"/>
					<path class="st0" d="M789.19,166.79v-1.32c2.99-0.31,3.55-0.51,3.55-4.11v-8.47c0-3.6-1.27-5.89-4.47-5.89
						c-1.83,0-3.75,1.01-5.68,2.64c0.1,0.61,0.15,1.17,0.15,2.13v9.89c0,3.2,0.46,3.5,3.25,3.81v1.32h-10.86v-1.32
						c3.15-0.31,3.6-0.56,3.6-3.91v-8.73c0-3.75-1.32-5.83-4.41-5.83c-2.03,0-4.01,1.37-5.53,2.64v11.92c0,3.3,0.41,3.6,2.89,3.91
						v1.32h-10.71v-1.32c3.35-0.31,3.81-0.61,3.81-3.91v-10.5c0-3.25-0.15-3.5-3.1-3.96v-1.17c2.23-0.41,4.82-1.07,7.05-2.08v4.11
						c1.07-0.71,2.18-1.62,3.7-2.59c1.32-0.81,2.54-1.37,4.16-1.37c2.44,0,4.62,1.52,5.63,4.16c1.47-1.12,2.94-2.08,4.21-2.84
						c1.07-0.71,2.39-1.32,3.81-1.32c3.96,0,6.44,2.79,6.44,7.76v9.79c0,3.4,0.41,3.6,3.3,3.91v1.32H789.19z"/>
				</g>
			</g>
		</g>
	</g>
</g>
</svg>
